<svg width="529" height="40" viewBox="0 0 529 40" fill="none" xmlns="http://www.w3.org/2000/svg">
<path d="M15.488 25.016L12.416 13.8H13.856L16.272 23.416L19.024 13.8H20.512L23.184 23.416L25.632 13.8H27.072L23.936 25H22.4L19.728 15.752L16.992 25L15.488 25.016ZM28.5728 25V13.48H29.9168V18.424C30.1834 17.9333 30.5621 17.5547 31.0528 17.288C31.5434 17.0107 32.0768 16.872 32.6528 16.872C33.5701 16.872 34.3061 17.16 34.8608 17.736C35.4154 18.3013 35.6927 19.176 35.6927 20.36V25H34.3648V20.504C34.3648 18.8507 33.6981 18.024 32.3648 18.024C31.6714 18.024 31.0901 18.2747 30.6208 18.776C30.1514 19.2667 29.9168 19.9707 29.9168 20.888V25H28.5728ZM40.369 25.192C39.7077 25.192 39.1583 25.08 38.721 24.856C38.2837 24.632 37.9583 24.3333 37.745 23.96C37.5317 23.5867 37.425 23.1813 37.425 22.744C37.425 21.9333 37.7343 21.3093 38.353 20.872C38.9717 20.4347 39.8143 20.216 40.881 20.216H43.025V20.12C43.025 19.4267 42.8437 18.904 42.481 18.552C42.1183 18.1893 41.633 18.008 41.025 18.008C40.5023 18.008 40.049 18.1413 39.665 18.408C39.2917 18.664 39.057 19.0427 38.961 19.544H37.585C37.6383 18.968 37.8303 18.4827 38.161 18.088C38.5023 17.6933 38.9237 17.3947 39.425 17.192C39.9263 16.9787 40.4597 16.872 41.025 16.872C42.1343 16.872 42.9663 17.1707 43.521 17.768C44.0863 18.3547 44.369 19.1387 44.369 20.12V25H43.169L43.089 23.576C42.865 24.024 42.5343 24.408 42.097 24.728C41.6703 25.0373 41.0943 25.192 40.369 25.192ZM40.577 24.056C41.089 24.056 41.5263 23.9227 41.889 23.656C42.2623 23.3893 42.545 23.0427 42.737 22.616C42.929 22.1893 43.025 21.7413 43.025 21.272V21.256H40.993C40.2037 21.256 39.6437 21.3947 39.313 21.672C38.993 21.9387 38.833 22.2747 38.833 22.68C38.833 23.096 38.9823 23.432 39.281 23.688C39.5903 23.9333 40.0223 24.056 40.577 24.056ZM49.3025 25C48.5772 25 48.0065 24.824 47.5905 24.472C47.1745 24.12 46.9665 23.4853 46.9665 22.568V18.2H45.5905V17.064H46.9665L47.1425 15.16H48.3105V17.064H50.6465V18.2H48.3105V22.568C48.3105 23.0693 48.4118 23.4107 48.6145 23.592C48.8172 23.7627 49.1745 23.848 49.6865 23.848H50.5185V25H49.3025ZM60.1884 25.192C59.399 25.192 58.7057 25.0107 58.1084 24.648C57.5217 24.2853 57.063 23.7893 56.7324 23.16C56.4124 22.5307 56.2524 21.816 56.2524 21.016C56.2524 20.216 56.4177 19.5067 56.7484 18.888C57.079 18.2587 57.5377 17.768 58.1244 17.416C58.711 17.0533 59.4044 16.872 60.2044 16.872C60.855 16.872 61.431 17.0053 61.9324 17.272C62.4337 17.5387 62.823 17.912 63.1004 18.392V13.48H64.4444V25H63.2284L63.1004 23.688C62.8444 24.072 62.4764 24.4187 61.9964 24.728C61.5164 25.0373 60.9137 25.192 60.1884 25.192ZM60.3324 24.024C60.8657 24.024 61.335 23.9013 61.7404 23.656C62.1564 23.4 62.4764 23.048 62.7004 22.6C62.935 22.152 63.0524 21.6293 63.0524 21.032C63.0524 20.4347 62.935 19.912 62.7004 19.464C62.4764 19.016 62.1564 18.6693 61.7404 18.424C61.335 18.168 60.8657 18.04 60.3324 18.04C59.8097 18.04 59.3404 18.168 58.9244 18.424C58.519 18.6693 58.199 19.016 57.9644 19.464C57.7404 19.912 57.6284 20.4347 57.6284 21.032C57.6284 21.6293 57.7404 22.152 57.9644 22.6C58.199 23.048 58.519 23.4 58.9244 23.656C59.3404 23.9013 59.8097 24.024 60.3324 24.024ZM70.2513 25.192C69.5046 25.192 68.8326 25.0213 68.2353 24.68C67.6379 24.3387 67.1633 23.8587 66.8113 23.24C66.4699 22.6107 66.2993 21.8747 66.2993 21.032C66.2993 20.1893 66.4753 19.4587 66.8273 18.84C67.1793 18.2107 67.6539 17.7253 68.2513 17.384C68.8593 17.0427 69.5366 16.872 70.2833 16.872C71.0299 16.872 71.7019 17.0427 72.2993 17.384C72.8966 17.7253 73.3659 18.2107 73.7073 18.84C74.0593 19.4587 74.2353 20.1893 74.2353 21.032C74.2353 21.8747 74.0593 22.6107 73.7073 23.24C73.3553 23.8587 72.8753 24.3387 72.2673 24.68C71.6699 25.0213 70.9979 25.192 70.2513 25.192ZM70.2513 24.04C70.7099 24.04 71.1366 23.928 71.5313 23.704C71.9259 23.48 72.2459 23.144 72.4913 22.696C72.7366 22.248 72.8593 21.6933 72.8593 21.032C72.8593 20.3707 72.7366 19.816 72.4913 19.368C72.2566 18.92 71.9419 18.584 71.5473 18.36C71.1526 18.136 70.7313 18.024 70.2833 18.024C69.8246 18.024 69.3979 18.136 69.0033 18.36C68.6086 18.584 68.2886 18.92 68.0433 19.368C67.7979 19.816 67.6753 20.3707 67.6753 21.032C67.6753 21.6933 67.7979 22.248 68.0433 22.696C68.2886 23.144 68.6033 23.48 68.9873 23.704C69.3819 23.928 69.8033 24.04 70.2513 24.04ZM81.2024 28.52L83.1704 24.232H82.7064L79.5544 17.064H81.0104L83.6344 23.24L86.4184 17.064H87.8104L82.6104 28.52H81.2024ZM92.095 25.192C91.3483 25.192 90.6763 25.0213 90.079 24.68C89.4817 24.3387 89.007 23.8587 88.655 23.24C88.3137 22.6107 88.143 21.8747 88.143 21.032C88.143 20.1893 88.319 19.4587 88.671 18.84C89.023 18.2107 89.4977 17.7253 90.095 17.384C90.703 17.0427 91.3803 16.872 92.127 16.872C92.8737 16.872 93.5457 17.0427 94.143 17.384C94.7403 17.7253 95.2097 18.2107 95.551 18.84C95.903 19.4587 96.079 20.1893 96.079 21.032C96.079 21.8747 95.903 22.6107 95.551 23.24C95.199 23.8587 94.719 24.3387 94.111 24.68C93.5137 25.0213 92.8417 25.192 92.095 25.192ZM92.095 24.04C92.5537 24.04 92.9803 23.928 93.375 23.704C93.7697 23.48 94.0897 23.144 94.335 22.696C94.5803 22.248 94.703 21.6933 94.703 21.032C94.703 20.3707 94.5803 19.816 94.335 19.368C94.1003 18.92 93.7857 18.584 93.391 18.36C92.9963 18.136 92.575 18.024 92.127 18.024C91.6683 18.024 91.2417 18.136 90.847 18.36C90.4523 18.584 90.1323 18.92 89.887 19.368C89.6417 19.816 89.519 20.3707 89.519 21.032C89.519 21.6933 89.6417 22.248 89.887 22.696C90.1323 23.144 90.447 23.48 90.831 23.704C91.2257 23.928 91.647 24.04 92.095 24.04ZM100.844 25.192C99.9051 25.192 99.1584 24.9093 98.6038 24.344C98.0491 23.768 97.7718 22.888 97.7718 21.704V17.064H99.1158V21.56C99.1158 23.2133 99.7931 24.04 101.148 24.04C101.841 24.04 102.412 23.7947 102.86 23.304C103.318 22.8027 103.548 22.0933 103.548 21.176V17.064H104.892V25H103.676L103.58 23.576C103.334 24.0773 102.966 24.472 102.476 24.76C101.996 25.048 101.452 25.192 100.844 25.192ZM112.938 25L110.618 17.064H111.962L113.642 23.288L115.498 17.064H117.018L118.89 23.288L120.554 17.064H121.914L119.594 25H118.218L116.266 18.456L114.314 25H112.938ZM125.76 25.192C125.098 25.192 124.549 25.08 124.112 24.856C123.674 24.632 123.349 24.3333 123.136 23.96C122.922 23.5867 122.816 23.1813 122.816 22.744C122.816 21.9333 123.125 21.3093 123.744 20.872C124.362 20.4347 125.205 20.216 126.272 20.216H128.416V20.12C128.416 19.4267 128.234 18.904 127.872 18.552C127.509 18.1893 127.024 18.008 126.416 18.008C125.893 18.008 125.44 18.1413 125.056 18.408C124.682 18.664 124.448 19.0427 124.352 19.544H122.976C123.029 18.968 123.221 18.4827 123.552 18.088C123.893 17.6933 124.314 17.3947 124.816 17.192C125.317 16.9787 125.85 16.872 126.416 16.872C127.525 16.872 128.357 17.1707 128.912 17.768C129.477 18.3547 129.76 19.1387 129.76 20.12V25H128.56L128.48 23.576C128.256 24.024 127.925 24.408 127.488 24.728C127.061 25.0373 126.485 25.192 125.76 25.192ZM125.968 24.056C126.48 24.056 126.917 23.9227 127.28 23.656C127.653 23.3893 127.936 23.0427 128.128 22.616C128.32 22.1893 128.416 21.7413 128.416 21.272V21.256H126.384C125.594 21.256 125.034 21.3947 124.704 21.672C124.384 21.9387 124.224 22.2747 124.224 22.68C124.224 23.096 124.373 23.432 124.672 23.688C124.981 23.9333 125.413 24.056 125.968 24.056ZM131.776 25V17.064H132.992L133.072 18.488C133.328 17.9867 133.696 17.592 134.176 17.304C134.656 17.016 135.2 16.872 135.808 16.872C136.747 16.872 137.493 17.16 138.048 17.736C138.613 18.3013 138.896 19.176 138.896 20.36V25H137.552V20.504C137.552 18.8507 136.869 18.024 135.504 18.024C134.821 18.024 134.251 18.2747 133.792 18.776C133.344 19.2667 133.12 19.9707 133.12 20.888V25H131.776ZM144.068 25C143.343 25 142.772 24.824 142.356 24.472C141.94 24.12 141.732 23.4853 141.732 22.568V18.2H140.356V17.064H141.732L141.908 15.16H143.076V17.064H145.412V18.2H143.076V22.568C143.076 23.0693 143.177 23.4107 143.38 23.592C143.583 23.7627 143.94 23.848 144.452 23.848H145.284V25H144.068ZM154.49 25C153.765 25 153.194 24.824 152.778 24.472C152.362 24.12 152.154 23.4853 152.154 22.568V18.2H150.778V17.064H152.154L152.33 15.16H153.498V17.064H155.834V18.2H153.498V22.568C153.498 23.0693 153.599 23.4107 153.802 23.592C154.005 23.7627 154.362 23.848 154.874 23.848H155.706V25H154.49ZM160.939 25.192C160.192 25.192 159.52 25.0213 158.923 24.68C158.325 24.3387 157.851 23.8587 157.499 23.24C157.157 22.6107 156.987 21.8747 156.987 21.032C156.987 20.1893 157.163 19.4587 157.515 18.84C157.867 18.2107 158.341 17.7253 158.939 17.384C159.547 17.0427 160.224 16.872 160.971 16.872C161.717 16.872 162.389 17.0427 162.987 17.384C163.584 17.7253 164.053 18.2107 164.395 18.84C164.747 19.4587 164.923 20.1893 164.923 21.032C164.923 21.8747 164.747 22.6107 164.395 23.24C164.043 23.8587 163.563 24.3387 162.955 24.68C162.357 25.0213 161.685 25.192 160.939 25.192ZM160.939 24.04C161.397 24.04 161.824 23.928 162.219 23.704C162.613 23.48 162.933 23.144 163.179 22.696C163.424 22.248 163.547 21.6933 163.547 21.032C163.547 20.3707 163.424 19.816 163.179 19.368C162.944 18.92 162.629 18.584 162.235 18.36C161.84 18.136 161.419 18.024 160.971 18.024C160.512 18.024 160.085 18.136 159.691 18.36C159.296 18.584 158.976 18.92 158.731 19.368C158.485 19.816 158.363 20.3707 158.363 21.032C158.363 21.6933 158.485 22.248 158.731 22.696C158.976 23.144 159.291 23.48 159.675 23.704C160.069 23.928 160.491 24.04 160.939 24.04ZM172.626 25L170.306 17.064H171.65L173.33 23.288L175.186 17.064H176.706L178.578 23.288L180.242 17.064H181.602L179.282 25H177.906L175.954 18.456L174.002 25H172.626ZM185.447 25.192C184.786 25.192 184.236 25.08 183.799 24.856C183.362 24.632 183.036 24.3333 182.823 23.96C182.61 23.5867 182.503 23.1813 182.503 22.744C182.503 21.9333 182.812 21.3093 183.431 20.872C184.05 20.4347 184.892 20.216 185.959 20.216H188.103V20.12C188.103 19.4267 187.922 18.904 187.559 18.552C187.196 18.1893 186.711 18.008 186.103 18.008C185.58 18.008 185.127 18.1413 184.743 18.408C184.37 18.664 184.135 19.0427 184.039 19.544H182.663C182.716 18.968 182.908 18.4827 183.239 18.088C183.58 17.6933 184.002 17.3947 184.503 17.192C185.004 16.9787 185.538 16.872 186.103 16.872C187.212 16.872 188.044 17.1707 188.599 17.768C189.164 18.3547 189.447 19.1387 189.447 20.12V25H188.247L188.167 23.576C187.943 24.024 187.612 24.408 187.175 24.728C186.748 25.0373 186.172 25.192 185.447 25.192ZM185.655 24.056C186.167 24.056 186.604 23.9227 186.967 23.656C187.34 23.3893 187.623 23.0427 187.815 22.616C188.007 22.1893 188.103 21.7413 188.103 21.272V21.256H186.071C185.282 21.256 184.722 21.3947 184.391 21.672C184.071 21.9387 183.911 22.2747 183.911 22.68C183.911 23.096 184.06 23.432 184.359 23.688C184.668 23.9333 185.1 24.056 185.655 24.056ZM194.381 25C193.655 25 193.085 24.824 192.669 24.472C192.253 24.12 192.045 23.4853 192.045 22.568V18.2H190.669V17.064H192.045L192.221 15.16H193.389V17.064H195.725V18.2H193.389V22.568C193.389 23.0693 193.49 23.4107 193.693 23.592C193.895 23.7627 194.253 23.848 194.765 23.848H195.597V25H194.381ZM200.861 25.192C200.104 25.192 199.421 25.0213 198.813 24.68C198.216 24.328 197.741 23.8427 197.389 23.224C197.048 22.5947 196.877 21.864 196.877 21.032C196.877 20.2 197.048 19.4747 197.389 18.856C197.741 18.2267 198.216 17.7413 198.813 17.4C199.421 17.048 200.104 16.872 200.861 16.872C201.8 16.872 202.589 17.1173 203.229 17.608C203.88 18.0987 204.291 18.7547 204.461 19.576H203.085C202.979 19.0853 202.717 18.7067 202.301 18.44C201.885 18.1627 201.4 18.024 200.845 18.024C200.397 18.024 199.976 18.136 199.581 18.36C199.187 18.584 198.867 18.92 198.621 19.368C198.376 19.816 198.253 20.3707 198.253 21.032C198.253 21.6933 198.376 22.248 198.621 22.696C198.867 23.144 199.187 23.4853 199.581 23.72C199.976 23.944 200.397 24.056 200.845 24.056C201.4 24.056 201.885 23.9227 202.301 23.656C202.717 23.3787 202.979 22.9893 203.085 22.488H204.461C204.301 23.288 203.896 23.9387 203.245 24.44C202.595 24.9413 201.8 25.192 200.861 25.192ZM206.338 25V13.48H207.682V18.424C207.949 17.9333 208.328 17.5547 208.818 17.288C209.309 17.0107 209.842 16.872 210.418 16.872C211.336 16.872 212.072 17.16 212.626 17.736C213.181 18.3013 213.458 19.176 213.458 20.36V25H212.13V20.504C212.13 18.8507 211.464 18.024 210.13 18.024C209.437 18.024 208.856 18.2747 208.386 18.776C207.917 19.2667 207.682 19.9707 207.682 20.888V25H206.338ZM216.807 21.864L216.743 19.288H217.239C217.836 19.288 218.391 19.2293 218.903 19.112C219.425 18.9947 219.847 18.7653 220.167 18.424C220.487 18.0827 220.647 17.5707 220.647 16.888C220.647 16.2267 220.439 15.704 220.023 15.32C219.617 14.936 219.079 14.744 218.407 14.744C217.724 14.744 217.185 14.9307 216.791 15.304C216.396 15.6773 216.199 16.1787 216.199 16.808H214.919C214.919 16.168 215.063 15.608 215.351 15.128C215.649 14.648 216.06 14.2747 216.583 14.008C217.105 13.7413 217.713 13.608 218.407 13.608C219.1 13.608 219.713 13.7413 220.247 14.008C220.78 14.2747 221.196 14.6533 221.495 15.144C221.793 15.6347 221.943 16.216 221.943 16.888C221.943 17.6773 221.772 18.3173 221.431 18.808C221.1 19.2987 220.636 19.656 220.039 19.88C219.452 20.104 218.78 20.216 218.023 20.216L217.975 21.864H216.807ZM217.383 25.08C217.116 25.08 216.892 24.9947 216.711 24.824C216.54 24.6427 216.455 24.424 216.455 24.168C216.455 23.912 216.54 23.6987 216.711 23.528C216.892 23.3467 217.116 23.256 217.383 23.256C217.649 23.256 217.868 23.3467 218.039 23.528C218.209 23.6987 218.295 23.912 218.295 24.168C218.295 24.424 218.209 24.6427 218.039 24.824C217.868 24.9947 217.649 25.08 217.383 25.08Z" fill="white"/>
<path d="M515 26L511 22M512.333 18.6667C512.333 21.244 510.244 23.3333 507.667 23.3333C505.089 23.3333 503 21.244 503 18.6667C503 16.0893 505.089 14 507.667 14C510.244 14 512.333 16.0893 512.333 18.6667Z" stroke="white" stroke-width="2" stroke-linecap="round" stroke-linejoin="round"/>
<rect x="1" y="1" width="527" height="38" rx="7" stroke="#D1D5DB" stroke-width="2"/>
</svg>
